<?xml version="1.0" encoding="UTF-8" standalone="no"?>
<!-- Created with Inkscape (http://www.inkscape.org/) -->

<svg
   xmlns:dc="http://purl.org/dc/elements/1.1/"
   xmlns:cc="http://creativecommons.org/ns#"
   xmlns:rdf="http://www.w3.org/1999/02/22-rdf-syntax-ns#"
   xmlns:svg="http://www.w3.org/2000/svg"
   xmlns="http://www.w3.org/2000/svg"
   xmlns:sodipodi="http://sodipodi.sourceforge.net/DTD/sodipodi-0.dtd"
   xmlns:inkscape="http://www.inkscape.org/namespaces/inkscape"
   width="113.22206"
   height="28.26755"
   viewBox="0 0 29.95667 7.4791223"
   version="1.1"
   id="svg3041"
   inkscape:version="0.92.0 r15299"
   sodipodi:docname="vivo energy.svg">
  <defs
     id="defs3035">
    <clipPath
       id="clipPath2671"
       clipPathUnits="userSpaceOnUse">
      <path
         style="clip-rule:evenodd"
         inkscape:connector-curvature="0"
         id="path2669"
         d="M 2.685e-6,1.8311e-4 H 720 V 540.00018 H 2.685e-6 Z" />
    </clipPath>
    <clipPath
       id="clipPath2681"
       clipPathUnits="userSpaceOnUse">
      <path
         inkscape:connector-curvature="0"
         id="path2679"
         d="M 0,0 H 1044.46 V 254.21 H 0 Z" />
    </clipPath>
    <clipPath
       id="clipPath2537"
       clipPathUnits="userSpaceOnUse">
      <path
         style="clip-rule:evenodd"
         inkscape:connector-curvature="0"
         id="path2535"
         d="M 2.685e-6,1.8311e-4 H 720 V 540.00018 H 2.685e-6 Z" />
    </clipPath>
    <clipPath
       id="clipPath2547"
       clipPathUnits="userSpaceOnUse">
      <path
         inkscape:connector-curvature="0"
         id="path2545"
         d="M 0,0 H 1044.46 V 254.21 H 0 Z" />
    </clipPath>
  </defs>
  <sodipodi:namedview
     id="base"
     pagecolor="#ffffff"
     bordercolor="#666666"
     borderopacity="1.0"
     inkscape:pageopacity="0.0"
     inkscape:pageshadow="2"
     inkscape:zoom="7.993081"
     inkscape:cx="56.111029"
     inkscape:cy="13.633776"
     inkscape:document-units="mm"
     inkscape:current-layer="layer1"
     showgrid="false"
     inkscape:window-width="1280"
     inkscape:window-height="744"
     inkscape:window-x="-4"
     inkscape:window-y="-4"
     inkscape:window-maximized="1"
     fit-margin-top="0"
     fit-margin-left="0"
     fit-margin-right="0"
     fit-margin-bottom="0"
     units="px" />
  <metadata
     id="metadata3038">
    <rdf:RDF>
      <cc:Work
         rdf:about="">
        <dc:format>image/svg+xml</dc:format>
        <dc:type
           rdf:resource="http://purl.org/dc/dcmitype/StillImage" />
        <dc:title></dc:title>
      </cc:Work>
    </rdf:RDF>
  </metadata>
  <g
     inkscape:label="Layer 1"
     inkscape:groupmode="layer"
     id="layer1"
     transform="translate(2.3728293,-144.96171)">
    <g
       id="g3383"
       transform="translate(0.13229202,-0.13228902)">
      <path
         inkscape:connector-curvature="0"
         id="path2555"
         style="fill:#e6262a;fill-opacity:1;fill-rule:nonzero;stroke:none;stroke-width:0.02846466"
         d="m 4.3799441,150.44912 c 0,0 0,0 0,0 -0.084221,0.10126 -0.1769772,0.19407 -0.2697337,0.27844 -0.4213877,0.37971 -0.8937062,0.61595 -1.4078505,0.66658 -0.075969,0.008 -0.1434027,0.0169 -0.2108361,0.0169 0,0 0,0 0,0 0,0 0,0 0,0 -0.5480033,0 -0.9947141,-0.26156 -1.4246377,-0.5906 -0.76726147,-0.59909 -1.44168103,-1.45136 -2.4196363,-1.46816 -0.059011,0 -0.059011,0 -0.059011,0 -0.050561,0 -0.1096006,0.009 -0.168612,0.009 -0.1264448,0.0168 -0.2444675,0.0421 -0.3624902,0.0675 -0.075884,0.0253 -0.1433174,0.0507 -0.2107735,0.0757 0.025292,0.0592 0.050584,0.12669 0.075878,0.18575 0.7250089,1.64531 1.97272631,2.73373 3.3890558,2.7506 0,0 0,0 0,0 0,0 0,0 0,0 0.075969,0 0.075969,0 0.075969,0 0,0 0,0 0,0 0,0 0,0 0,0 0.8345241,-0.008 1.6186866,-0.39657 2.2676977,-1.04623 0.2614823,-0.27001 0.5058929,-0.59063 0.7249804,-0.94502 z" />
      <path
         inkscape:connector-curvature="0"
         id="path2557"
         style="fill:#82bb26;fill-opacity:1;fill-rule:nonzero;stroke:none;stroke-width:0.02846466"
         d="m -2.3475383,148.77844 c -0.00843,0.0253 -0.01686,0.0507 -0.025291,0.076 0.3287868,-0.19421 0.6913055,-0.2953 1.0706682,-0.2953 1.49221344,0 2.2845419,2.08402 3.7854334,2.08402 0.5477187,0 1.0703989,-0.22781 1.5088584,-0.61592 0.2950568,-0.26158 0.6828701,-0.65823 0.8262728,-1.156 -0.3792774,0.13498 -0.9272807,0.22781 -1.1045424,0.22781 -1.4752839,0 -2.2509105,-2.0503 -3.73458799,-2.0503 -0.94421015,0 -1.78727021,0.67518 -2.32681151,1.72966" />
      <path
         inkscape:connector-curvature="0"
         id="path2559"
         style="fill:#2caae1;fill-opacity:1;fill-rule:nonzero;stroke:none;stroke-width:0.02846466"
         d="m -1.3358777,146.79563 c 0.42995211,-0.32891 0.91891554,-0.52312 1.43317362,-0.52312 1.52584478,0 2.32679448,2.0335 3.84418868,2.05031 0.050646,0 0.050646,0 0.050646,0 0.2868054,0 0.5647904,-0.059 0.8262728,-0.17713 -0.7249804,-1.70431 -2.0064999,-2.84337 -3.4649966,-2.84337 -1.02848772,0 -1.97269787,0.56526 -2.6892847,1.49331" />
      <path
         inkscape:connector-curvature="0"
         id="path2561"
         style="fill:#6e6f72;fill-opacity:1;fill-rule:nonzero;stroke:none;stroke-width:0.02846466"
         d="M 9.3540836,152.38975 H 6.7742573 v -2.21904 H 9.261327 v 0.26155 H 7.1282116 v 0.67501 h 1.1298655 v 0.26155 H 7.1282116 v 0.75935 h 2.225872 z" />
      <path
         inkscape:connector-curvature="0"
         id="path2563"
         style="fill:#6e6f72;fill-opacity:1;fill-rule:nonzero;stroke:none;stroke-width:0.02846466"
         d="m 12.945411,152.38975 h -0.36249 l -1.96439,-1.80562 v 0 1.80562 h -0.36249 v -2.21904 h 0.36249 l 1.955854,1.83092 h 0.0085 v -1.83092 h 0.36249 z" />
      <path
         inkscape:connector-curvature="0"
         id="path2565"
         style="fill:#6e6f72;fill-opacity:1;fill-rule:nonzero;stroke:none;stroke-width:0.02846466"
         d="m 16.688393,152.38975 h -2.579542 v -2.21904 h 2.48707 v 0.26155 h -2.133116 v 0.67501 h 1.12133 v 0.26155 h -1.12133 v 0.75935 h 2.225588 z" />
      <path
         inkscape:connector-curvature="0"
         id="path2567"
         style="fill:#6e6f72;fill-opacity:1;fill-rule:nonzero;stroke:none;stroke-width:0.02846466"
         d="m 19.183998,151.2085 c 0.396065,0 0.724981,-0.0337 0.724981,-0.39656 0,-0.27844 -0.337167,-0.37968 -0.657547,-0.37968 -1.36574,0 -1.36574,0 -1.36574,0 0,0.77624 0,0.77624 0,0.77624 z m 1.00325,1.18125 c -0.4046,0 -0.4046,0 -0.4046,0 -0.699942,-0.92812 -0.699942,-0.92812 -0.699942,-0.92812 -1.197014,0 -1.197014,0 -1.197014,0 0,0.92812 0,0.92812 0,0.92812 -0.362491,0 -0.362491,0 -0.362491,0 0,-2.21904 0,-2.21904 0,-2.21904 1.517395,0 1.517395,0 1.517395,0 0.455246,0 1.222337,0.0675 1.222337,0.64123 0,0.47251 -0.421388,0.62437 -0.775627,0.64969 z" />
      <path
         inkscape:connector-curvature="0"
         id="path2569"
         style="fill:#6e6f72;fill-opacity:1;fill-rule:nonzero;stroke:none;stroke-width:0.02846466"
         d="m 23.896655,151.77381 c 0,0.39657 -0.590113,0.65813 -1.36574,0.65813 -0.834808,0 -1.652545,-0.36283 -1.652545,-1.16438 0,-0.59906 0.666083,-1.13906 1.660797,-1.13906 0.733516,0 1.113078,0.27845 1.298306,0.405 -0.24441,0.18563 -0.24441,0.18563 -0.24441,0.18563 -0.185513,-0.11812 -0.539468,-0.3375 -1.036825,-0.3375 -0.800949,0 -1.323629,0.43031 -1.323629,0.88593 0,0.53157 0.514144,0.90282 1.315094,0.90282 0.657547,0 0.994714,-0.21093 0.994714,-0.42188 0,-0.30376 0,-0.30376 0,-0.30376 -1.045361,0 -1.045361,0 -1.045361,0 0,-0.26155 0,-0.26155 0,-0.26155 1.399599,0 1.399599,0 1.399599,0 z" />
      <path
         inkscape:connector-curvature="0"
         id="path2571"
         style="fill:#6e6f72;fill-opacity:1;fill-rule:nonzero;stroke:none;stroke-width:0.02846466"
         d="m 25.93673,152.38975 h -0.353954 v -1.02936 l -1.28152,-1.18968 h 0.463783 l 1.00325,0.93656 1.002965,-0.93656 h 0.463783 l -1.298307,1.18968 z" />
      <path
         inkscape:connector-curvature="0"
         id="path2573"
         style="fill:#82bb26;fill-opacity:1;fill-rule:nonzero;stroke:none;stroke-width:0.02846466"
         d="m 13.619745,148.82058 c -0.396064,0 -0.396064,0 -0.396064,0 -0.371026,0 -0.548004,-0.0336 -0.548004,-0.33744 0,-2.92766 0,-2.92766 0,-2.92766 0,-0.25316 0.16019,-0.32919 0.455247,-0.32919 0.488821,0 0.488821,0 0.488821,0 0.32038,0 0.413137,0.18567 0.413137,0.32919 0,2.92766 0,2.92766 0,2.92766 0,0.21101 -0.09276,0.33744 -0.413137,0.33744" />
      <path
         inkscape:connector-curvature="0"
         id="path2575"
         style="fill:#82bb26;fill-opacity:1;fill-rule:nonzero;stroke:none;stroke-width:0.02846466"
         d="m 21.190498,145.51333 c -2.116043,3.05438 -2.116043,3.05438 -2.116043,3.05438 -0.11808,0.16004 -0.23616,0.24461 -0.623973,0.24461 -0.472034,0 -0.472034,0 -0.472034,0 -0.379562,0 -0.497357,-0.0846 -0.607185,-0.24461 -2.217052,-3.10507 -2.217052,-3.10507 -2.217052,-3.10507 -0.02532,-0.0253 -0.04211,-0.0507 -0.04211,-0.076 0,-0.13498 0.2023,-0.16032 0.370742,-0.16032 0.632508,0 0.632508,0 0.632508,0 0.311844,0 0.421388,0.076 0.488821,0.18567 1.635474,2.42989 1.635474,2.42989 1.635474,2.42989 1.585112,-2.39601 1.585112,-2.39601 1.585112,-2.39601 0.09276,-0.14352 0.185513,-0.21955 0.539467,-0.21955 0.505893,0 0.505893,0 0.505893,0 0.345703,0 0.387814,0.0421 0.387814,0.12672 0,0.0336 -0.01707,0.0928 -0.06743,0.16032" />
      <path
         inkscape:connector-curvature="0"
         id="path2577"
         style="fill:#82bb26;fill-opacity:1;fill-rule:nonzero;stroke:none;stroke-width:0.02846466"
         d="m 11.807294,145.51333 c -2.1160433,3.05438 -2.1160433,3.05438 -2.1160433,3.05438 -0.1095438,0.16004 -0.2361593,0.24461 -0.6154367,0.24461 -0.4805698,0 -0.4805698,0 -0.4805698,0 -0.3792774,0 -0.4891057,-0.0846 -0.6069008,-0.24461 -2.2173361,-3.10507 -2.2173361,-3.10507 -2.2173361,-3.10507 -0.016787,-0.0253 -0.04211,-0.0507 -0.04211,-0.076 0,-0.13498 0.2108362,-0.16032 0.3710261,-0.16032 0.6322239,0 0.6322239,0 0.6322239,0 0.3203799,0 0.4213877,0.076 0.497357,0.18567 1.6272225,2.42989 1.6272225,2.42989 1.6272225,2.42989 1.5933632,-2.39601 1.5933632,-2.39601 1.5933632,-2.39601 0.09247,-0.14352 0.185229,-0.21955 0.530932,-0.21955 0.505892,0 0.505892,0 0.505892,0 0.353955,0 0.39635,0.0421 0.39635,0.12672 0,0.0336 -0.02532,0.0928 -0.07597,0.16032" />
      <path
         inkscape:connector-curvature="0"
         id="path2579"
         style="fill:#82bb26;fill-opacity:1;fill-rule:nonzero;stroke:none;stroke-width:0.02846466"
         d="m 25.759753,146.13754 c -0.210836,-0.22782 -0.657547,-0.32065 -1.197015,-0.32065 -0.539752,0 -0.986462,0.0928 -1.197299,0.32065 -0.185513,0.21101 -0.210836,0.61594 -0.210836,0.8691 0,0.26169 0.02532,0.64983 0.210836,0.86055 0.210837,0.23636 0.657547,0.32919 1.197299,0.32919 0.539468,0 0.986179,-0.0928 1.197015,-0.32919 0.185513,-0.21072 0.210836,-0.59886 0.210836,-0.86055 0,-0.25316 -0.02532,-0.65809 -0.210836,-0.8691 m 0.834524,2.22742 c -0.463498,0.2785 -1.112794,0.41348 -2.031539,0.41348 -0.910493,0 -1.585112,-0.13498 -2.040359,-0.41348 -0.56479,-0.35425 -0.708193,-0.84376 -0.708193,-1.35832 0,-0.51457 0.143403,-1.00408 0.708193,-1.35007 0.48057,-0.2953 1.146653,-0.42174 2.040359,-0.42174 0.901958,0 1.559505,0.12644 2.031539,0.42174 0.56479,0.34599 0.72498,0.8355 0.72498,1.35007 0,0.51456 -0.16019,1.00407 -0.72498,1.35832" />
    </g>
  </g>
</svg>
