<svg xmlns="http://www.w3.org/2000/svg" viewBox="0 0 500 500" fill="none">
  <g transform="translate(50, 60)">
    <path d="M340,320 C340,310 335,295 330,285 L320,260 C315,248 310,235 305,225 L295,205 C290,195 280,180 270,170 L260,162 C255,158 248,154 240,152 L230,150 C225,150 218,152 212,156 L200,165 C195,170 190,178 188,185 L185,195 C183,205 182,218 183,228 L185,245 C186,252 188,260 190,268 L195,280 C197,285 200,290 205,295 L212,302 C215,305 220,308 225,310 L235,315 C240,317 248,318 255,318 L270,316 C278,314 288,310 295,305 L305,296 C310,290 315,282 318,275 L322,265 C325,258 328,248 330,240 L335,225 C337,218 339,208 340,200 L340,185 C340,175 338,162 335,152 L330,140 C328,135 324,128 320,122 L312,115 C308,112 302,108 296,106 L280,102 C272,100 262,100 252,102 L240,106 C232,108 222,114 215,120 L205,130 C200,136 194,145 190,155 L185,168 C183,175 180,185 178,195 L175,215 C174,228 174,245 176,258 L180,275 C182,285 186,298 192,308 L200,320 C205,328 212,336 220,342 L232,350 C238,354 248,358 258,360 L275,362 C285,362 298,360 308,355 L320,348 C328,342 335,334 340,325Z" fill="#0a0a0a"/>
    <path d="M190,155 C185,148 178,140 172,135 L160,128 C155,125 148,122 140,120 L125,118 C118,118 108,120 100,124 L88,132 C82,138 76,148 72,158 L68,172 C66,182 66,195 68,208 L72,222 C75,230 80,238 86,245 L95,252 C100,256 108,260 115,262 L130,264 C138,264 148,262 156,258 L168,250 C175,244 182,236 186,228 L192,215 C195,208 196,198 196,190 L195,175 C194,168 192,160 190,155Z" fill="#0a0a0a"/>
    <path d="M330,285 L335,310 C336,320 338,335 340,345 L342,358 C343,365 344,375 344,382 L342,390 C340,395 336,398 332,398 L325,396 C322,394 318,390 316,386 L310,370 C308,362 305,350 304,340 L302,325 C302,318 302,308 304,300 L308,290Z" fill="#0a0a0a"/>
    <path d="M205,295 L195,315 C190,325 184,340 180,350 L175,365 C173,372 170,382 168,390 L166,396 C166,400 168,402 172,402 L180,400 C184,398 188,394 190,390 L198,372 C200,365 204,355 208,345 L215,330 C218,322 220,312 220,305 L218,298Z" fill="#0a0a0a"/>
    <path d="M268,170 L258,158 C254,152 248,145 242,140 L232,134 C228,132 222,130 216,130 L208,132 C204,134 200,138 198,142 L196,150 C195,155 196,162 198,168 L202,178 C205,184 210,190 216,194 L226,200 C232,203 240,205 248,204 L258,200 C264,197 270,192 274,186 L278,178 C280,173 280,166 278,160 L274,155Z" fill="#0a0a0a"/>
    <path d="M230,138 L225,128 C222,122 218,115 214,110 L208,105 C205,103 200,102 196,103 L192,106 C190,108 188,112 188,116 L188,125 C189,130 192,136 196,140 L202,146 C206,149 212,152 218,152 L226,150 C230,148 232,144 232,140Z" fill="#0a0a0a"/>
    <circle cx="248" cy="162" r="4" fill="#1a1a1a"/>
    <path d="M196,106 L188,96 C185,92 180,86 176,82 L170,78 C167,76 162,76 158,78 L154,82 C152,85 150,90 150,95 L152,104 C154,110 158,116 164,120 L172,126" fill="#0a0a0a"/>
  </g>
</svg>
